<svg width="329" height="41" viewBox="0 0 329 41" fill="none" xmlns="http://www.w3.org/2000/svg">
<path d="M0.16 31V7.8H29.36C30.3733 7.8 31.28 8.05333 32.08 8.56C32.88 9.04 33.52 9.68 34 10.48C34.48 11.28 34.72 12.1733 34.72 13.16V31H29.96V13.32C29.96 13.1067 29.88 12.9333 29.72 12.8C29.5867 12.64 29.4133 12.56 29.2 12.56H20.6C20.4133 12.56 20.24 12.64 20.08 12.8C19.9467 12.9333 19.88 13.1067 19.88 13.32V31H15.04V13.32C15.04 13.1067 14.9733 12.9333 14.84 12.8C14.7067 12.64 14.5333 12.56 14.32 12.56H5.68C5.49333 12.56 5.32 12.64 5.16 12.8C5.02667 12.9333 4.96 13.1067 4.96 13.32V31H0.16ZM41.1816 31V7.8H45.9416V31H41.1816ZM41.1816 5V0.199998H45.9416V5H41.1816ZM57.9909 31C57.0043 31 56.1109 30.76 55.3109 30.28C54.5109 29.7733 53.8576 29.12 53.3509 28.32C52.8709 27.52 52.6309 26.6267 52.6309 25.64V24.88H57.3909V25.48C57.3909 25.6933 57.4576 25.88 57.5909 26.04C57.7509 26.1733 57.9376 26.24 58.1509 26.24H70.6709C70.8843 26.24 71.0576 26.1733 71.1909 26.04C71.3509 25.88 71.4309 25.6933 71.4309 25.48V22.52C71.4309 22.3333 71.3509 22.1733 71.1909 22.04C71.0576 21.88 70.8843 21.8 70.6709 21.8H57.9909C57.0043 21.8 56.1109 21.56 55.3109 21.08C54.5109 20.5733 53.8576 19.92 53.3509 19.12C52.8709 18.32 52.6309 17.4267 52.6309 16.44V13.16C52.6309 12.1733 52.8709 11.28 53.3509 10.48C53.8576 9.68 54.5109 9.04 55.3109 8.56C56.1109 8.05333 57.0043 7.8 57.9909 7.8H70.8309C71.8443 7.8 72.7509 8.05333 73.5509 8.56C74.3509 9.04 74.9909 9.68 75.4709 10.48C75.9776 11.28 76.2309 12.1733 76.2309 13.16V13.92H71.4309V13.32C71.4309 13.1067 71.3509 12.9333 71.1909 12.8C71.0576 12.64 70.8843 12.56 70.6709 12.56H58.1509C57.9376 12.56 57.7509 12.64 57.5909 12.8C57.4576 12.9333 57.3909 13.1067 57.3909 13.32V16.28C57.3909 16.4667 57.4576 16.64 57.5909 16.8C57.7509 16.9333 57.9376 17 58.1509 17H70.8309C71.8443 17 72.7509 17.2533 73.5509 17.76C74.3509 18.24 74.9909 18.88 75.4709 19.68C75.9776 20.48 76.2309 21.3733 76.2309 22.36V25.64C76.2309 26.6267 75.9776 27.52 75.4709 28.32C74.9909 29.12 74.3509 29.7733 73.5509 30.28C72.7509 30.76 71.8443 31 70.8309 31H57.9909ZM86.8297 31C85.843 31 84.9497 30.76 84.1497 30.28C83.3497 29.7733 82.6964 29.12 82.1897 28.32C81.7097 27.52 81.4697 26.6267 81.4697 25.64V13.16C81.4697 12.1733 81.7097 11.28 82.1897 10.48C82.6964 9.68 83.3497 9.04 84.1497 8.56C84.9497 8.05333 85.843 7.8 86.8297 7.8H99.6697C100.683 7.8 101.59 8.05333 102.39 8.56C103.19 9.04 103.83 9.68 104.31 10.48C104.79 11.28 105.03 12.1733 105.03 13.16V21.8H86.2297V25.48C86.2297 25.6933 86.2964 25.88 86.4297 26.04C86.5897 26.1733 86.7764 26.24 86.9897 26.24H105.03V31H86.8297ZM86.2297 17.44H100.27V13.32C100.27 13.1067 100.19 12.9333 100.03 12.8C99.8964 12.64 99.723 12.56 99.5097 12.56H86.9897C86.7764 12.56 86.5897 12.64 86.4297 12.8C86.2964 12.9333 86.2297 13.1067 86.2297 13.32V17.44ZM125.119 31V7.8H129.879V31H125.119ZM125.119 5V0.199998H129.879V5H125.119ZM136.535 31V7.8H154.775C155.735 7.8 156.615 8.05333 157.415 8.56C158.242 9.04 158.895 9.68 159.375 10.48C159.855 11.28 160.095 12.1733 160.095 13.16V31H155.335V13.32C155.335 13.1067 155.255 12.9333 155.095 12.8C154.962 12.64 154.802 12.56 154.615 12.56H142.055C141.868 12.56 141.695 12.64 141.535 12.8C141.375 12.9333 141.295 13.1067 141.295 13.32V31H136.535ZM184.421 31C183.434 31 182.527 30.76 181.701 30.28C180.901 29.7733 180.261 29.12 179.781 28.32C179.301 27.52 179.061 26.6267 179.061 25.64V13.16C179.061 12.1733 179.301 11.28 179.781 10.48C180.261 9.68 180.901 9.04 181.701 8.56C182.527 8.05333 183.434 7.8 184.421 7.8H197.901V0.199998H202.661V31H184.421ZM184.621 26.24H197.141C197.354 26.24 197.527 26.1733 197.661 26.04C197.821 25.88 197.901 25.6933 197.901 25.48V13.32C197.901 13.1067 197.821 12.9333 197.661 12.8C197.527 12.64 197.354 12.56 197.141 12.56H184.621C184.407 12.56 184.221 12.64 184.061 12.8C183.927 12.9333 183.861 13.1067 183.861 13.32V25.48C183.861 25.6933 183.927 25.88 184.061 26.04C184.221 26.1733 184.407 26.24 184.621 26.24ZM208.9 31V7.8H213.66V31H208.9ZM208.9 5V0.199998H213.66V5H208.9ZM223.17 40.16V35.36H237.29C237.477 35.36 237.637 35.28 237.77 35.12C237.93 34.9867 238.01 34.8133 238.01 34.6V31H224.57C223.61 31 222.717 30.76 221.89 30.28C221.09 29.7733 220.437 29.12 219.93 28.32C219.45 27.52 219.21 26.6267 219.21 25.64V13.16C219.21 12.1733 219.45 11.28 219.93 10.48C220.437 9.68 221.09 9.04 221.89 8.56C222.717 8.05333 223.61 7.8 224.57 7.8H237.45C238.437 7.8 239.33 8.05333 240.13 8.56C240.957 9.04 241.597 9.68 242.05 10.48C242.53 11.28 242.77 12.1733 242.77 13.16V34.8C242.77 35.7867 242.53 36.68 242.05 37.48C241.597 38.3067 240.957 38.96 240.13 39.44C239.33 39.92 238.437 40.16 237.45 40.16H223.17ZM224.73 26.24H237.29C237.477 26.24 237.637 26.1733 237.77 26.04C237.93 25.88 238.01 25.6933 238.01 25.48V13.32C238.01 13.1067 237.93 12.9333 237.77 12.8C237.637 12.64 237.477 12.56 237.29 12.56H224.73C224.517 12.56 224.33 12.64 224.17 12.8C224.037 12.9333 223.97 13.1067 223.97 13.32V25.48C223.97 25.6933 224.037 25.88 224.17 26.04C224.33 26.1733 224.517 26.24 224.73 26.24ZM248.955 31V7.8H253.715V31H248.955ZM248.955 5V0.199998H253.715V5H248.955ZM265.535 31C264.548 31 263.641 30.76 262.815 30.28C262.015 29.7733 261.375 29.12 260.895 28.32C260.415 27.52 260.175 26.6267 260.175 25.64V0.559999H264.935V7.8H274.215V12.56H264.935V25.48C264.935 25.6933 265.001 25.88 265.135 26.04C265.295 26.1733 265.481 26.24 265.695 26.24H274.215V31H265.535ZM285.385 31C284.399 31 283.492 30.76 282.665 30.28C281.865 29.7733 281.225 29.12 280.745 28.32C280.265 27.52 280.025 26.6267 280.025 25.64V17H298.825V13.32C298.825 13.1067 298.745 12.9333 298.585 12.8C298.452 12.64 298.279 12.56 298.065 12.56H280.025V7.8H298.225C299.239 7.8 300.145 8.05333 300.945 8.56C301.745 9.04 302.385 9.68 302.865 10.48C303.345 11.28 303.585 12.1733 303.585 13.16V31H285.385ZM285.545 26.24H298.825V21.36H284.785V25.48C284.785 25.6933 284.852 25.88 284.985 26.04C285.145 26.1733 285.332 26.24 285.545 26.24ZM314.417 31C313.43 31 312.537 30.76 311.737 30.28C310.937 29.7733 310.283 29.12 309.777 28.32C309.297 27.52 309.057 26.6267 309.057 25.64V0.159999H313.857V25.48C313.857 25.6933 313.923 25.88 314.057 26.04C314.217 26.1733 314.39 26.24 314.577 26.24H318.897V31H314.417ZM323.949 31V26.24H328.709V31H323.949Z" fill="black"/>
</svg>
