<svg width="348" height="41" viewBox="0 0 348 41" fill="none" xmlns="http://www.w3.org/2000/svg">
<path d="M0.16 31V7.8H29.36C30.3733 7.8 31.28 8.05333 32.08 8.56C32.88 9.04 33.52 9.68 34 10.48C34.48 11.28 34.72 12.1733 34.72 13.16V31H29.96V13.32C29.96 13.1067 29.88 12.9333 29.72 12.8C29.5867 12.64 29.4133 12.56 29.2 12.56H20.6C20.4133 12.56 20.24 12.64 20.08 12.8C19.9467 12.9333 19.88 13.1067 19.88 13.32V31H15.04V13.32C15.04 13.1067 14.9733 12.9333 14.84 12.8C14.7067 12.64 14.5333 12.56 14.32 12.56H5.68C5.49333 12.56 5.32 12.64 5.16 12.8C5.02667 12.9333 4.96 13.1067 4.96 13.32V31H0.16ZM41.1816 31V7.8H45.9416V31H41.1816ZM41.1816 5V0.199998H45.9416V5H41.1816ZM57.9909 31C57.0043 31 56.1109 30.76 55.3109 30.28C54.5109 29.7733 53.8576 29.12 53.3509 28.32C52.8709 27.52 52.6309 26.6267 52.6309 25.64V24.88H57.3909V25.48C57.3909 25.6933 57.4576 25.88 57.5909 26.04C57.7509 26.1733 57.9376 26.24 58.1509 26.24H70.6709C70.8843 26.24 71.0576 26.1733 71.1909 26.04C71.3509 25.88 71.4309 25.6933 71.4309 25.48V22.52C71.4309 22.3333 71.3509 22.1733 71.1909 22.04C71.0576 21.88 70.8843 21.8 70.6709 21.8H57.9909C57.0043 21.8 56.1109 21.56 55.3109 21.08C54.5109 20.5733 53.8576 19.92 53.3509 19.12C52.8709 18.32 52.6309 17.4267 52.6309 16.44V13.16C52.6309 12.1733 52.8709 11.28 53.3509 10.48C53.8576 9.68 54.5109 9.04 55.3109 8.56C56.1109 8.05333 57.0043 7.8 57.9909 7.8H70.8309C71.8443 7.8 72.7509 8.05333 73.5509 8.56C74.3509 9.04 74.9909 9.68 75.4709 10.48C75.9776 11.28 76.2309 12.1733 76.2309 13.16V13.92H71.4309V13.32C71.4309 13.1067 71.3509 12.9333 71.1909 12.8C71.0576 12.64 70.8843 12.56 70.6709 12.56H58.1509C57.9376 12.56 57.7509 12.64 57.5909 12.8C57.4576 12.9333 57.3909 13.1067 57.3909 13.32V16.28C57.3909 16.4667 57.4576 16.64 57.5909 16.8C57.7509 16.9333 57.9376 17 58.1509 17H70.8309C71.8443 17 72.7509 17.2533 73.5509 17.76C74.3509 18.24 74.9909 18.88 75.4709 19.68C75.9776 20.48 76.2309 21.3733 76.2309 22.36V25.64C76.2309 26.6267 75.9776 27.52 75.4709 28.32C74.9909 29.12 74.3509 29.7733 73.5509 30.28C72.7509 30.76 71.8443 31 70.8309 31H57.9909ZM86.8297 31C85.843 31 84.9497 30.76 84.1497 30.28C83.3497 29.7733 82.6964 29.12 82.1897 28.32C81.7097 27.52 81.4697 26.6267 81.4697 25.64V13.16C81.4697 12.1733 81.7097 11.28 82.1897 10.48C82.6964 9.68 83.3497 9.04 84.1497 8.56C84.9497 8.05333 85.843 7.8 86.8297 7.8H99.6697C100.683 7.8 101.59 8.05333 102.39 8.56C103.19 9.04 103.83 9.68 104.31 10.48C104.79 11.28 105.03 12.1733 105.03 13.16V21.8H86.2297V25.48C86.2297 25.6933 86.2964 25.88 86.4297 26.04C86.5897 26.1733 86.7764 26.24 86.9897 26.24H105.03V31H86.8297ZM86.2297 17.44H100.27V13.32C100.27 13.1067 100.19 12.9333 100.03 12.8C99.8964 12.64 99.723 12.56 99.5097 12.56H86.9897C86.7764 12.56 86.5897 12.64 86.4297 12.8C86.2964 12.9333 86.2297 13.1067 86.2297 13.32V17.44ZM130.439 31C129.452 31 128.559 30.76 127.759 30.28C126.959 29.7733 126.306 29.12 125.799 28.32C125.319 27.52 125.079 26.6267 125.079 25.64V13.16C125.079 12.1733 125.319 11.28 125.799 10.48C126.306 9.68 126.959 9.04 127.759 8.56C128.559 8.05333 129.452 7.8 130.439 7.8H143.279C144.292 7.8 145.199 8.05333 145.999 8.56C146.799 9.04 147.439 9.68 147.919 10.48C148.399 11.28 148.639 12.1733 148.639 13.16V21.8H129.839V25.48C129.839 25.6933 129.906 25.88 130.039 26.04C130.199 26.1733 130.386 26.24 130.599 26.24H148.639V31H130.439ZM129.839 17.44H143.879V13.32C143.879 13.1067 143.799 12.9333 143.639 12.8C143.506 12.64 143.332 12.56 143.119 12.56H130.599C130.386 12.56 130.199 12.64 130.039 12.8C129.906 12.9333 129.839 13.1067 129.839 13.32V17.44ZM154.894 31V7.8H173.134C174.094 7.8 174.974 8.05333 175.774 8.56C176.601 9.04 177.254 9.68 177.734 10.48C178.214 11.28 178.454 12.1733 178.454 13.16V31H173.694V13.32C173.694 13.1067 173.614 12.9333 173.454 12.8C173.321 12.64 173.161 12.56 172.974 12.56H160.414C160.228 12.56 160.054 12.64 159.894 12.8C159.734 12.9333 159.654 13.1067 159.654 13.32V31H154.894ZM202.78 31C201.793 31 200.887 30.76 200.06 30.28C199.26 29.7733 198.62 29.12 198.14 28.32C197.66 27.52 197.42 26.6267 197.42 25.64V13.16C197.42 12.1733 197.66 11.28 198.14 10.48C198.62 9.68 199.26 9.04 200.06 8.56C200.887 8.05333 201.793 7.8 202.78 7.8H216.26V0.199998H221.02V31H202.78ZM202.98 26.24H215.5C215.713 26.24 215.887 26.1733 216.02 26.04C216.18 25.88 216.26 25.6933 216.26 25.48V13.32C216.26 13.1067 216.18 12.9333 216.02 12.8C215.887 12.64 215.713 12.56 215.5 12.56H202.98C202.767 12.56 202.58 12.64 202.42 12.8C202.287 12.9333 202.22 13.1067 202.22 13.32V25.48C202.22 25.6933 202.287 25.88 202.42 26.04C202.58 26.1733 202.767 26.24 202.98 26.24ZM227.26 31V7.8H232.02V31H227.26ZM227.26 5V0.199998H232.02V5H227.26ZM241.53 40.16V35.36H255.65C255.836 35.36 255.996 35.28 256.13 35.12C256.29 34.9867 256.37 34.8133 256.37 34.6V31H242.93C241.97 31 241.076 30.76 240.25 30.28C239.45 29.7733 238.796 29.12 238.29 28.32C237.81 27.52 237.57 26.6267 237.57 25.64V13.16C237.57 12.1733 237.81 11.28 238.29 10.48C238.796 9.68 239.45 9.04 240.25 8.56C241.076 8.05333 241.97 7.8 242.93 7.8H255.81C256.796 7.8 257.69 8.05333 258.49 8.56C259.316 9.04 259.956 9.68 260.41 10.48C260.89 11.28 261.13 12.1733 261.13 13.16V34.8C261.13 35.7867 260.89 36.68 260.41 37.48C259.956 38.3067 259.316 38.96 258.49 39.44C257.69 39.92 256.796 40.16 255.81 40.16H241.53ZM243.09 26.24H255.65C255.836 26.24 255.996 26.1733 256.13 26.04C256.29 25.88 256.37 25.6933 256.37 25.48V13.32C256.37 13.1067 256.29 12.9333 256.13 12.8C255.996 12.64 255.836 12.56 255.65 12.56H243.09C242.876 12.56 242.69 12.64 242.53 12.8C242.396 12.9333 242.33 13.1067 242.33 13.32V25.48C242.33 25.6933 242.396 25.88 242.53 26.04C242.69 26.1733 242.876 26.24 243.09 26.24ZM267.314 31V7.8H272.074V31H267.314ZM267.314 5V0.199998H272.074V5H267.314ZM283.894 31C282.907 31 282.001 30.76 281.174 30.28C280.374 29.7733 279.734 29.12 279.254 28.32C278.774 27.52 278.534 26.6267 278.534 25.64V0.559999H283.294V7.8H292.574V12.56H283.294V25.48C283.294 25.6933 283.361 25.88 283.494 26.04C283.654 26.1733 283.841 26.24 284.054 26.24H292.574V31H283.894ZM303.745 31C302.758 31 301.851 30.76 301.025 30.28C300.225 29.7733 299.585 29.12 299.105 28.32C298.625 27.52 298.385 26.6267 298.385 25.64V17H317.185V13.32C317.185 13.1067 317.105 12.9333 316.945 12.8C316.811 12.64 316.638 12.56 316.425 12.56H298.385V7.8H316.585C317.598 7.8 318.505 8.05333 319.305 8.56C320.105 9.04 320.745 9.68 321.225 10.48C321.705 11.28 321.945 12.1733 321.945 13.16V31H303.745ZM303.905 26.24H317.185V21.36H303.145V25.48C303.145 25.6933 303.211 25.88 303.345 26.04C303.505 26.1733 303.691 26.24 303.905 26.24ZM332.776 31C331.789 31 330.896 30.76 330.096 30.28C329.296 29.7733 328.643 29.12 328.136 28.32C327.656 27.52 327.416 26.6267 327.416 25.64V0.159999H332.216V25.48C332.216 25.6933 332.283 25.88 332.416 26.04C332.576 26.1733 332.749 26.24 332.936 26.24H337.256V31H332.776ZM342.308 31V26.24H347.068V31H342.308Z" fill="black"/>
</svg>
